HIERARCHY
ROOT Hips
{
	OFFSET 0.00000 0.00000 0.00000
	CHANNELS 6 Xposition Yposition Zposition Zrotation Yrotation Xrotation 
	JOINT LHipJoint
	{
		OFFSET 0 0 0
		CHANNELS 3 Zrotation Yrotation Xrotation
		JOINT LeftHip
		{
			OFFSET 1.36443 -1.53315 0.80540
			CHANNELS 3 Zrotation Yrotation Xrotation
			JOINT LeftKnee
			{
				OFFSET 2.27494 -6.25036 0.00000
				CHANNELS 3 Zrotation Yrotation Xrotation
				JOINT LeftAnkle
				{
					OFFSET 2.17461 -5.97470 0.00000
					CHANNELS 3 Zrotation Yrotation Xrotation
					JOINT LeftToe
					{
						OFFSET 0.22144 -0.60841 2.08966
						CHANNELS 3 Zrotation Yrotation Xrotation
						End Site
						{
							OFFSET 0.00000 -0.00000 1.09206
						}
					}
				}
			}
		}
	}
	JOINT RHipJoint
	{
		OFFSET 0 0 0
		CHANNELS 3 Zrotation Yrotation Xrotation
		JOINT RightHip
		{
			OFFSET -1.29957 -1.53315 0.80539
			CHANNELS 3 Zrotation Yrotation Xrotation
			JOINT RightKnee
			{
				OFFSET -2.23917 -6.15209 0.00000
				CHANNELS 3 Zrotation Yrotation Xrotation
				JOINT RightAnkle
				{
					OFFSET -2.18029 -5.99030 0.00000
					CHANNELS 3 Zrotation Yrotation Xrotation
					JOINT RightToe
					{
						OFFSET -0.22354 -0.61416 1.89975
						CHANNELS 3 Zrotation Yrotation Xrotation
						End Site
						{
							OFFSET -0.00000 -0.00000 1.00221
						}
					}
				}
			}
		}
	}
	JOINT lowerback
	{
		OFFSET 0 0 0
		CHANNELS 3 Zrotation Yrotation Xrotation
		JOINT Chest
		{
			OFFSET -0.04725 2.10352 -0.01215
			CHANNELS 3 Zrotation Yrotation Xrotation
			JOINT Chest2
			{
				OFFSET 0.04471 2.09612 -0.07192
				CHANNELS 3 Zrotation Yrotation Xrotation
				JOINT lowerneck
				{
					OFFSET 0 0 0
					CHANNELS 3 Zrotation Yrotation Xrotation
					JOINT Neck
					{
						OFFSET -0.01586 1.38087 0.11506
						CHANNELS 3 Zrotation Yrotation Xrotation
						JOINT Head
						{
							OFFSET -0.01055 1.38869 -0.12115
							CHANNELS 3 Zrotation Yrotation Xrotation
							End Site
							{
								OFFSET -0.00310 1.39537 -0.05348
							}
						}
					}
				}
				JOINT LeftCollar
				{
					OFFSET 0 0 0
					CHANNELS 3 Zrotation Yrotation Xrotation
					JOINT LeftShoulder
					{
						OFFSET 2.71932 0.62535 0.37316
CHANNELS 3 Zrotation Xrotation Yrotation
						JOINT LeftElbow
						{
OFFSET 0 -4.473660 0.000000
CHANNELS 3 Zrotation Xrotation Yrotation
							JOINT LeftWrist
							{
OFFSET 0 -3.199480 -0.000000
CHANNELS 3 Zrotation Xrotation Yrotation
								JOINT lhand
								{
									OFFSET 0 0 0
CHANNELS 3 Zrotation Xrotation Yrotation
									JOINT LFingers
									{
OFFSET 0 -0.492670 -0.000000
CHANNELS 3 Zrotation Xrotation Yrotation
										End Site
										{
OFFSET 0 -0.397200 -0.000000
										}
									}
								}
								JOINT LThumb
								{
OFFSET 0 0.000000 0.000000
CHANNELS 3 Zrotation Xrotation Yrotation
									End Site
									{
OFFSET 0 -0.403270 0.403270
									}
								}
							}
						}
					}
				}
				JOINT RightCollar
				{
					OFFSET 0 0 0
					CHANNELS 3 Zrotation Yrotation Xrotation
					JOINT RightShoulder
					{
						OFFSET -2.97334 0.70851 0.47631
CHANNELS 3 Zrotation Xrotation Yrotation
						JOINT RightElbow
						{
OFFSET 0 -4.326900 -0.000000
CHANNELS 3 Zrotation Xrotation Yrotation
							JOINT RightWrist
							{
OFFSET 0 -3.189600 0.000000
CHANNELS 3 Zrotation Xrotation Yrotation
								JOINT rhand
								{
									OFFSET 0 0 0
CHANNELS 3 Zrotation Xrotation Yrotation
									JOINT RFingers
									{
OFFSET 0 -0.464500 -0.000000
CHANNELS 3 Zrotation Xrotation Yrotation
										End Site
										{
OFFSET 0 -0.374490 -0.000000
										}
									}
								}
								JOINT RThumb
								{
OFFSET 0 0.000000 0.000000
CHANNELS 3 Zrotation Xrotation Yrotation
									End Site
									{
OFFSET 0 -0.380210 0.380210
									}
								}
							}
						}
					}
				}
			}
		}
	}
}
MOTION
Frames: 6
Frame Time: 0.008333333333333333
14.503400 14.845700 -12.562000 1.661500 -5.311700 6.094200 0.000000 0.000000 0.000000 -21.989300 -2.379000 -24.461300 6.725300 15.096100 47.827600 4.189600 -6.561400 -37.568400 3.348600 -11.239000 -33.090400 0.000000 0.000000 0.000000 22.426300 17.085700 -18.762500 -6.039400 -14.466400 45.139700 -4.134400 -15.691600 -45.844700 -2.787000 10.342000 -30.091600 -1.368700 -0.733800 -5.364800 3.425500 -1.015500 0.575500 4.236200 -0.570500 3.694200 -7.177400 -7.492200 -13.441100 0.854100 -9.588000 35.071400 -0.008800 -4.967400 14.809100 -0.000000 -0.000000 0.000000 6.581000 6.272300 -46.792600 26.197700 -37.403300 9.007500 25.838500 -17.410100 -4.264000 0.000000 0.000000 0.000000 -7.125000 0.000000 0.000000 -0.667500 34.714700 -0.168500 -0.000000 -0.000000 0.000000 -11.268300 4.914600 23.575800 -16.659600 -26.406900 -3.934800 -11.082600 12.786300 34.916800 0.000000 0.000000 0.000000 7.125000 0.000000 -0.000000 27.259300 63.366200 -12.619000
14.577646 14.849052 -12.554936 0.393791 -4.296567 5.228139 0.000000 0.000000 0.000000 -21.030825 -1.891441 -22.894026 6.330265 14.740972 46.293267 4.096972 -3.054894 -37.723520 4.419684 -12.698298 -38.250272 0.000000 0.000000 0.000000 22.848405 10.506401 -20.913255 -6.338939 -14.748647 46.326734 -3.630036 -9.261215 -39.994472 -2.530726 9.893595 -28.632821 -3.958919 -1.404491 -4.135091 2.984189 -1.764559 1.392878 5.197517 -1.018556 3.983437 -5.317675 -6.123737 -14.134319 1.576234 -8.428901 37.075173 0.122458 -4.114504 15.796860 0.000000 0.000000 0.000000 6.923793 5.014324 -41.571298 21.547828 -32.461179 6.341913 27.522821 -16.277536 -5.196653 0.000000 0.000000 0.000000 -7.125000 0.000000 0.000000 0.703397 35.834535 0.158117 0.000000 0.000000 0.000000 -10.286046 6.671781 27.498179 -19.695456 -30.273499 -5.377076 -10.157684 7.485654 34.015061 0.000000 0.000000 0.000000 7.125000 0.000000 0.000000 27.292396 62.341821 -11.978747
14.761622 14.856122 -12.738293 0.022595 -6.924295 5.704729 0.000000 0.000000 0.000000 -21.641558 -3.011022 -22.907998 6.053272 14.479528 45.194698 4.250001 0.168444 -39.255281 4.655792 -12.985048 -39.312943 0.000000 0.000000 0.000000 17.660887 11.101590 -34.129500 -11.319311 -18.075195 63.798946 -1.191329 7.536390 -19.464887 -0.801769 5.714045 -15.957135 -6.300487 -1.377352 -1.966693 2.108333 -1.691078 1.692619 5.654278 -1.006667 3.110618 -3.993198 -5.162587 -14.149866 0.851997 -7.086599 36.718650 -0.165730 -3.489285 15.444095 0.000000 0.000000 0.000000 8.560261 5.018082 -38.475646 19.221919 -29.693565 5.140341 27.542981 -15.107521 -6.308264 0.000000 0.000000 0.000000 -7.125000 0.000000 0.000000 0.682475 37.085834 0.132843 0.000000 0.000000 0.000000 -10.668322 8.347226 29.639929 -21.640677 -32.568530 -6.391355 -8.226308 5.934494 34.379086 0.000000 0.000000 0.000000 7.125000 0.000000 0.000000 29.675739 62.167070 -12.999778
14.810531 15.105534 -12.884269 -1.833211 -6.955497 4.872540 0.000000 0.000000 0.000000 -20.294124 -5.142389 -19.091347 4.942576 13.318397 40.573201 3.695416 4.603824 -38.134815 5.170768 -13.573473 -41.555169 0.000000 0.000000 0.000000 12.231479 15.757292 -55.673704 -21.614713 -19.924980 94.728669 -0.627469 7.205720 -14.239430 -0.091753 1.947866 -5.361832 -6.639436 -2.087772 1.122892 1.986839 -2.801606 3.093592 5.742627 -1.608444 3.003147 -2.603439 -3.951613 -14.266587 -0.097762 -5.292506 35.814686 -0.480660 -2.689351 14.879470 0.000000 0.000000 0.000000 10.663260 3.317134 -36.612676 17.336752 -27.298673 4.241164 27.380286 -13.319867 -6.590101 0.000000 0.000000 0.000000 -7.125000 0.000000 0.000000 0.532299 37.391935 0.099751 0.000000 0.000000 0.000000 -9.380602 8.620438 26.841962 -21.584847 -32.504615 -6.361327 -10.093043 6.233577 34.495980 0.000000 0.000000 0.000000 7.125000 0.000000 0.000000 27.856461 62.742957 -12.511297
14.706959 15.338117 -12.914376 -4.904032 -4.007175 3.178935 0.000000 0.000000 0.000000 -16.907894 -6.485033 -14.864071 4.104331 12.297697 36.793751 3.158051 6.563402 -36.315695 5.591376 -14.020195 -43.318503 0.000000 0.000000 0.000000 7.376248 16.417237 -75.703766 -29.184387 -17.838876 117.824674 -0.895387 9.092916 -17.100079 -0.014871 0.785576 -2.159044 -6.162581 -2.931849 4.673925 3.060154 -4.140027 4.175434 6.737123 -2.304433 2.394743 -2.462664 -3.591385 -13.905813 0.027796 -4.842357 35.521742 -0.364254 -2.469898 14.649725 0.000000 0.000000 0.000000 11.245173 1.597707 -36.664590 18.354214 -28.607478 4.718050 27.487468 -14.268199 -7.479445 0.000000 0.000000 0.000000 -7.125000 0.000000 0.000000 0.582674 38.397452 0.094987 0.000000 0.000000 0.000000 -9.950593 10.702278 25.702400 -19.831800 -30.438355 -5.446275 -9.574503 8.438817 32.871845 0.000000 0.000000 0.000000 7.125000 0.000000 0.000000 26.780852 61.195898 -11.008288
14.527593 15.445014 -12.853683 -7.231074 -2.418794 1.594009 0.000000 0.000000 0.000000 -14.004448 -7.158730 -11.563301 3.685373 11.729471 34.781513 2.823247 7.217703 -34.883403 5.552148 -13.979807 -43.156770 0.000000 0.000000 0.000000 0.417258 13.285249 -84.808987 -31.900271 -16.192121 127.078907 -1.320980 8.838625 -20.594048 -0.006282 -0.505495 1.388967 -5.099890 -2.505323 6.465581 3.691308 -3.613060 4.602126 6.884416 -2.014832 1.726053 -2.599039 -4.088841 -13.383325 0.125522 -5.587980 35.984450 -0.416211 -2.788329 14.769225 0.000000 0.000000 0.000000 11.259195 -0.013110 -37.976020 21.316606 -32.195441 6.218059 28.077595 -17.735836 -5.504756 0.000000 0.000000 0.000000 -7.125000 0.000000 0.000000 1.160565 36.210921 0.251397 0.000000 0.000000 0.000000 -8.744156 11.089137 21.244678 -15.930010 -25.425258 -3.616031 -10.616375 13.111191 33.152864 0.000000 0.000000 0.000000 7.125000 0.000000 0.000000 25.962709 61.699265 -10.956560
